<svg xmlns="http://www.w3.org/2000/svg" xmlns:xlink="http://www.w3.org/1999/xlink" viewBox="0,0,256,256" width="96px" height="96px" fill-rule="nonzero"><g fill="#6c6c6c" fill-rule="nonzero" stroke="none" stroke-width="1" stroke-linecap="butt" stroke-linejoin="miter" stroke-miterlimit="10" stroke-dasharray="" stroke-dashoffset="0" font-family="none" font-weight="none" font-size="none" text-anchor="none" style="mix-blend-mode: normal"><g transform="scale(10.66667,10.66667)"><path d="M18,21h-12c-1.657,0 -3,-1.343 -3,-3v-9.235c0,-1.09 0.591,-2.093 1.543,-2.622l6,-3.333c0.906,-0.503 2.008,-0.503 2.914,0l6,3.333c0.952,0.529 1.543,1.533 1.543,2.622v9.235c0,1.657 -1.343,3 -3,3z" opacity="0.35"></path><path d="M15,21h-6v-6c0,-1.105 0.895,-2 2,-2h2c1.105,0 2,0.895 2,2z"></path></g></g></svg>